<?xml version="1.0" encoding="utf-8"?>
<!-- Generator: Adobe Illustrator 16.0.0, SVG Export Plug-In . SVG Version: 6.00 Build 0)  -->
<!DOCTYPE svg PUBLIC "-//W3C//DTD SVG 1.1//EN" "http://www.w3.org/Graphics/SVG/1.1/DTD/svg11.dtd">
<svg version="1.1" id="Layer_1" xmlns="http://www.w3.org/2000/svg" xmlns:xlink="http://www.w3.org/1999/xlink" x="0px" y="0px"
	 width="154px" height="56.667px" viewBox="0 0 154 56.667" enable-background="new 0 0 154 56.667" xml:space="preserve">
<path fill-rule="evenodd" clip-rule="evenodd" fill="#F8F8F8" d="M-154.739,46.576c-3.248,0-6.497,0.021-9.745-0.01
	c-1.366-0.013-2.719-0.232-4.034-0.636c-0.544-0.167-1.084-0.378-1.592-0.643c-1.658-0.862-2.563-2.3-2.613-4.229
	c-0.036-1.376,0.045-2.764,0.175-4.136c0.375-3.972,0.972-7.907,1.906-11.781c0.88-3.648,2.015-7.199,3.743-10.513
	c0.971-1.861,2.116-3.589,3.56-5.085c0.959-0.994,2.014-1.858,3.225-2.487c0.372-0.193,0.781-0.352,1.189-0.412
	c0.824-0.121,1.368,0.37,1.33,1.247c-0.025,0.588-0.149,1.196-0.353,1.745c-0.394,1.067-0.835,2.12-1.327,3.141
	c-1.227,2.547-1.761,5.25-1.688,8.084c0.021,0.799,0.144,1.615,0.345,2.388c0.637,2.453,2.349,3.945,4.82,4.198
	c0.783,0.08,1.596,0.088,2.371-0.038c2.755-0.445,4.401-2.237,4.8-5.17c0.423-3.108-0.106-6.072-1.315-8.916
	c-0.465-1.094-0.987-2.162-1.429-3.266c-0.228-0.571-0.396-1.185-0.487-1.797c-0.183-1.235,0.561-1.907,1.705-1.553
	c0.446,0.139,0.875,0.37,1.28,0.615c1.725,1.042,3.13,2.463,4.335,4.113c1.893,2.591,3.197,5.509,4.24,8.566
	c1.361,3.989,2.238,8.104,2.82,12.289c0.284,2.037,0.496,4.084,0.692,6.132c0.084,0.879,0.1,1.774,0.054,2.656
	c-0.1,1.927-0.98,3.354-2.634,4.226c-1.213,0.64-2.518,0.966-3.855,1.093c-1.43,0.135-2.868,0.215-4.304,0.238
	c-2.405,0.038-4.811,0.01-7.216,0.01C-154.739,46.622-154.739,46.599-154.739,46.576z"/>
<path fill-rule="evenodd" clip-rule="evenodd" fill="#FFFFFF" d="M27.686,47.827c-2.722,0-5.444,0.022-8.165-0.008
	c-1.717-0.02-3.438-0.128-5.103-0.609c-0.772-0.224-1.543-0.529-2.248-0.925c-1.348-0.757-2.113-2.005-2.229-3.601
	c-0.081-1.099-0.063-2.216,0.028-3.315c0.401-4.783,1.105-9.515,2.324-14.15c0.877-3.339,1.997-6.579,3.652-9.591
	c1.138-2.069,2.48-3.972,4.277-5.461c0.727-0.602,1.533-1.107,2.342-1.587c0.348-0.207,0.785-0.301,1.19-0.332
	c0.586-0.044,1.008,0.324,1.057,0.94c0.037,0.476,0.022,1.002-0.133,1.44c-0.447,1.251-0.924,2.498-1.486,3.695
	c-1.257,2.677-1.805,5.493-1.632,8.461c0.042,0.712,0.174,1.436,0.375,2.119c0.601,2.042,1.916,3.304,3.904,3.786
	c1.24,0.3,2.476,0.3,3.715-0.004c2.02-0.495,3.319-1.796,3.925-3.868c0.51-1.739,0.479-3.512,0.235-5.287
	c-0.265-1.926-0.8-3.76-1.667-5.495c-0.499-1-0.9-2.06-1.272-3.122c-0.173-0.495-0.232-1.058-0.229-1.588
	c0.003-0.709,0.492-1.169,1.164-1.074c0.496,0.07,1.002,0.254,1.449,0.499c1.676,0.921,3.052,2.235,4.244,3.766
	c1.837,2.36,3.13,5.042,4.175,7.868c1.382,3.739,2.315,7.609,2.91,11.561c0.42,2.798,0.71,5.62,0.997,8.437
	c0.085,0.835,0.023,1.702-0.076,2.54c-0.192,1.601-1.052,2.743-2.39,3.499c-1.096,0.619-2.284,0.958-3.505,1.092
	c-1.509,0.167-3.028,0.279-4.545,0.31c-2.428,0.05-4.856,0.014-7.285,0.014C27.686,47.834,27.686,47.831,27.686,47.827z
	 M23.825,9.486c-0.058-0.046-0.114-0.092-0.172-0.138c-0.353,0.164-0.745,0.271-1.053,0.501c-0.838,0.624-1.694,1.238-2.445,1.968
	c-1.638,1.592-2.844,3.536-3.877,5.601c-1.653,3.306-2.732,6.83-3.544,10.453c-0.777,3.467-1.263,6.984-1.589,10.526
	c-0.113,1.229-0.184,2.469-0.172,3.703c0.014,1.584,0.74,2.758,2.129,3.413c0.555,0.262,1.141,0.474,1.731,0.628
	c1.651,0.432,3.341,0.519,5.035,0.52c5.1,0.002,10.199,0.014,15.3-0.008c1.247-0.006,2.498-0.086,3.74-0.205
	c1.175-0.112,2.323-0.391,3.396-0.936c1.276-0.648,2.004-1.7,2.089-3.205c0.027-0.487,0.044-0.979,0.018-1.466
	c-0.196-3.478-0.613-6.927-1.235-10.347c-0.726-3.984-1.742-7.878-3.367-11.573c-1.065-2.423-2.364-4.69-4.122-6.639
	c-0.917-1.016-1.925-1.914-3.118-2.554c-0.286-0.153-0.606-0.236-1.078-0.415c0.134,0.559,0.18,0.941,0.316,1.284
	c0.424,1.068,0.841,2.145,1.34,3.176c0.66,1.367,1.137,2.792,1.429,4.288c0.437,2.218,0.599,4.445,0.065,6.668
	c-0.604,2.517-2.035,4.258-4.452,4.981c-1.561,0.467-3.143,0.481-4.725,0.071c-2.281-0.592-3.778-2.071-4.539-4.4
	c-0.346-1.06-0.507-2.156-0.509-3.267c-0.008-2.875,0.521-5.626,1.759-8.216c0.506-1.057,0.943-2.152,1.378-3.244
	C23.699,10.289,23.738,9.876,23.825,9.486z"/>
<path fill-rule="evenodd" clip-rule="evenodd" fill="#FFFFFF" d="M27.688,10.98c-0.74-0.003-1.343-0.651-1.34-1.441
	c0.004-0.79,0.61-1.433,1.351-1.427c0.736,0.005,1.352,0.662,1.35,1.44C29.048,10.328,28.424,10.982,27.688,10.98z"/>
<path fill-rule="evenodd" clip-rule="evenodd" fill="#FFFFFF" d="M-153.37,7.905c0.014,0.817-0.556,1.442-1.33,1.457
	c-0.781,0.016-1.374-0.579-1.388-1.394c-0.014-0.81,0.564-1.447,1.329-1.463C-153.993,6.489-153.384,7.103-153.37,7.905z"/>
<path fill-rule="evenodd" clip-rule="evenodd" d="M-77.958,44.109c0-1.913,0-3.826,0-5.77c1.384,0.055,2.846-1.427,4.083,0.323
	c0.384-0.22,0.657-0.413,0.955-0.541c1.754-0.758,2.803-0.088,2.902,1.918c0.067,1.337,0.014,2.682,0.014,4.023
	c-0.14,0.017-0.28,0.032-0.418,0.047c-0.091-0.342-0.245-0.681-0.26-1.026c-0.041-0.963,0.001-1.93-0.035-2.893
	c-0.028-0.787-0.148-1.571-1.127-1.618c-0.931-0.043-1.495,0.534-1.685,1.416c-0.143,0.661-0.091,1.367-0.124,2.054
	c-0.033,0.705-0.061,1.409-0.091,2.113c-0.142,0.007-0.285,0.014-0.426,0.02c-0.079-0.415-0.208-0.826-0.224-1.244
	c-0.039-0.963-0.015-1.928-0.024-2.893c-0.007-0.762-0.229-1.386-1.06-1.462c-0.821-0.075-1.437,0.346-1.648,1.158
	c-0.17,0.649-0.148,1.359-0.186,2.042c-0.042,0.778-0.055,1.554-0.082,2.333C-77.583,44.109-77.77,44.109-77.958,44.109z"/>
<path fill-rule="evenodd" clip-rule="evenodd" fill="#FFFFFF" d="M104.733,45.2c-0.027-1.163-0.048-2.326-0.082-3.488
	c-0.041-1.385-0.374-1.94-1.166-1.981c-0.85-0.044-1.578,0.645-1.718,1.839c-0.14,1.196-0.121,2.414-0.178,3.752
	c-0.741-1.033-0.847-2.496-0.506-5.817c0.598-0.111,1.189-0.28,1.789-0.314c0.56-0.033,1.234-0.106,1.665,0.17
	c0.592,0.378,0.93,0.283,1.522,0.009c1.807-0.836,2.853-0.079,2.917,2.01c0.039,1.273,0.007,2.55-0.358,3.9
	c-0.123-0.302-0.337-0.598-0.352-0.905c-0.048-1.014-0.03-2.032-0.023-3.049c0.005-0.824-0.179-1.546-1.103-1.575
	c-0.875-0.027-1.491,0.487-1.629,1.408c-0.119,0.798-0.084,1.62-0.14,2.43c-0.038,0.549-0.115,1.095-0.176,1.643
	C105.043,45.219,104.888,45.209,104.733,45.2z"/>
<path fill-rule="evenodd" clip-rule="evenodd" d="M-90.185,39.735c0.191-1.354,0.8-1.929,2.065-1.953
	c1.171-0.02,2.059,0.553,2.207,1.575c0.117,0.807,0.063,1.64,0.082,2.463c0.009,0.412-0.042,0.834,0.035,1.231
	c0.072,0.37,0.279,0.709,0.525,1.296c-1.097-0.362-2.035-0.295-3.014-0.008c-0.539,0.158-1.328-0.059-1.82-0.4
	c-0.995-0.689-0.792-2.32,0.345-2.837c0.7-0.319,1.536-0.297,2.26-0.572c0.343-0.129,0.804-0.617,0.785-0.91
	c-0.024-0.354-0.486-0.93-0.79-0.954c-0.594-0.043-1.254,0.134-1.801,0.408c-0.266,0.134-0.337,0.696-0.496,1.063
	C-89.93,40.004-90.058,39.869-90.185,39.735z M-86.76,41.167c-0.84,0.129-1.589,0.123-2.233,0.391
	c-0.377,0.156-0.839,0.773-0.808,1.14c0.029,0.36,0.596,0.878,0.996,0.961C-87.448,43.937-86.729,43.076-86.76,41.167z"/>
<path fill-rule="evenodd" clip-rule="evenodd" d="M-41.083,39.986c0.417-1.707,1.118-2.267,2.446-2.18
	c1.288,0.084,1.906,0.696,1.993,2.04c0.043,0.617-0.031,1.244,0.023,1.858c0.076,0.835,0.226,1.663,0.361,2.621
	c-0.912-0.419-1.851-0.282-2.822,0.036c-0.452,0.147-1.126,0.069-1.498-0.208c-0.421-0.311-0.765-0.928-0.877-1.471
	c-0.146-0.728,0.246-1.38,0.946-1.612c0.741-0.246,1.542-0.295,2.281-0.542c0.312-0.104,0.773-0.532,0.744-0.752
	c-0.053-0.397-0.407-1.055-0.657-1.065c-0.662-0.029-1.352,0.174-1.998,0.396C-40.437,39.209-40.654,39.573-41.083,39.986z
	 M-37.546,41.192c-0.77,0.103-1.412,0.159-2.042,0.279c-0.626,0.119-1.114,0.464-1.05,1.218c0.08,0.903,0.742,1.026,1.421,1.002
	C-37.982,43.646-37.515,42.985-37.546,41.192z"/>
<path fill-rule="evenodd" clip-rule="evenodd" fill="#FFFFFF" d="M88.895,41.393c0.431-1.949,1.02-2.412,2.458-2.341
	c1.294,0.064,1.902,0.621,2.021,1.945c0.061,0.67,0.016,1.351,0.022,2.026c0.003,0.405-0.038,0.821,0.035,1.213
	c0.066,0.349,0.264,0.671,0.551,1.359c-1.202-0.783-2.115-0.305-3.065-0.122c-0.477,0.092-1.107,0.06-1.479-0.209
	c-0.423-0.304-0.897-0.952-0.867-1.416c0.036-0.561,0.464-1.297,0.929-1.573c0.64-0.381,1.495-0.336,2.214-0.604
	c0.345-0.129,0.842-0.587,0.816-0.845c-0.037-0.365-0.454-0.902-0.782-0.97c-0.515-0.106-1.13,0.018-1.628,0.234
	C89.757,40.25,89.513,40.713,88.895,41.393z M92.602,42.365c-0.954,0.122-1.744,0.102-2.438,0.363
	c-0.363,0.138-0.817,0.819-0.758,1.165c0.064,0.377,0.641,0.838,1.059,0.929C91.626,45.073,92.367,44.246,92.602,42.365z"/>
<path fill-rule="evenodd" clip-rule="evenodd" fill="#FFFFFF" d="M137.64,41.032c0.192-1.583,0.781-2.048,2.223-1.979
	c1.232,0.061,1.847,0.555,2.004,1.742c0.088,0.665,0.013,1.352,0.055,2.025c0.053,0.839,0.15,1.674,0.211,2.328
	c-0.772,0.089-1.536,0.187-2.302,0.262c-0.443,0.044-0.898,0.117-1.334,0.06c-0.874-0.113-1.402-0.68-1.466-1.605
	c-0.058-0.842,0.369-1.451,1.113-1.701c0.668-0.226,1.402-0.244,2.062-0.49c0.349-0.131,0.853-0.574,0.832-0.836
	c-0.029-0.362-0.424-0.847-0.772-0.999C139.092,39.324,138.383,40.192,137.64,41.032z M141.039,42.408
	c-0.769,0.078-1.531,0.078-2.255,0.254c-0.578,0.141-1.181,0.604-0.868,1.289c0.195,0.428,0.844,0.838,1.315,0.874
	C140.419,44.917,140.936,44.192,141.039,42.408z"/>
<path fill-rule="evenodd" clip-rule="evenodd" d="M-107.928,41.347c-1.458,0-2.859,0-4.298,0c0.492,2.793,1.71,3.04,4.205,0.901
	c-0.084,1.292-0.709,1.838-1.622,2.099c-1.2,0.34-2.349-0.091-2.974-1.055c-0.753-1.165-0.644-3.422,0.219-4.488
	c0.771-0.954,1.961-1.269,3.025-0.759C-108.121,38.645-107.756,39.714-107.928,41.347z M-108.767,40.579
	c-0.224-1.555-0.671-2.067-1.696-2.021c-0.986,0.044-1.444,0.622-1.58,2.021C-110.953,40.579-109.866,40.579-108.767,40.579z"/>
<path fill-rule="evenodd" clip-rule="evenodd" fill="#FFFFFF" d="M71.649,42.49c-1.458,0-2.797,0-4.203,0
	c-0.211,1.136,0.17,1.806,1.019,2.213c1.277,0.612,1.979-0.438,2.822-1.34c-0.104,1.646-0.863,2.276-2.35,2.173
	c-1.564-0.107-2.548-1.371-2.518-3.235c0.031-1.911,1.183-3.262,2.769-3.246C70.777,39.07,71.527,40.035,71.649,42.49z
	 M67.355,41.66c1.272,0,2.367,0,3.548,0c-0.122-1.253-0.71-1.9-1.708-1.917C68.209,39.725,67.588,40.347,67.355,41.66z"/>
<path fill-rule="evenodd" clip-rule="evenodd" d="M-120.517,40.095c-1.843-1.682-2.693-1.886-3.562-1.014
	c-0.926,0.933-0.992,2.989-0.131,4c0.849,0.994,1.742,0.802,3.583-0.773c-0.211,1.582-0.887,2.184-2.382,2.116
	c-1.563-0.071-2.518-1.188-2.593-3.032c-0.077-1.869,0.868-3.289,2.361-3.552C-121.9,37.603-121.008,38.249-120.517,40.095z"/>
<path fill-rule="evenodd" clip-rule="evenodd" d="M-48.863,40.121c-1.939-1.768-2.953-1.927-3.79-0.842
	c-0.82,1.06-0.694,3.174,0.238,3.998c0.928,0.822,1.927,0.508,3.477-1.269c-0.06,0.588-0.003,0.968-0.147,1.229
	c-0.555,1.03-1.482,1.264-2.537,1.171c-1.111-0.096-1.843-0.744-2.164-1.814c-0.367-1.227-0.32-2.466,0.38-3.583
	c0.591-0.944,1.701-1.402,2.759-1.141C-49.715,38.1-49.006,38.581-48.863,40.121z"/>
<path fill-rule="evenodd" clip-rule="evenodd" fill="#FFFFFF" d="M129.87,43.121c-0.589,2.002-1.201,2.503-2.611,2.417
	c-1.301-0.08-2.136-0.851-2.394-2.207c-0.529-2.783,1.068-4.766,3.366-4.177c1.025,0.263,1.252,0.586,1.354,1.929
	c-1.812-1.573-2.659-1.726-3.509-0.632c-0.778,1.001-0.672,3.142,0.194,3.94C127.194,45.242,128.001,44.997,129.87,43.121z"/>
<path fill-rule="evenodd" clip-rule="evenodd" fill="#FFFFFF" d="M59.148,41.151c-2.035-1.635-2.801-1.767-3.642-0.693
	c-0.738,0.942-0.695,2.953,0.08,3.806c0.887,0.975,1.661,0.779,3.516-0.888c-0.189,1.888-2,2.8-3.621,1.824
	c-1.186-0.713-1.671-2.794-1.028-4.403c0.572-1.432,1.899-2.074,3.356-1.6C58.671,39.478,59.25,39.996,59.148,41.151z"/>
<path fill-rule="evenodd" clip-rule="evenodd" d="M-100.208,44.151c-0.353-1.881-0.067-3.811-0.168-5.724
	c0.886-0.191,1.705-0.367,2.51-0.54c0.055,0.266,0.118,0.5,0.103,0.506c-1.664,0.626-1.96,2-1.864,3.635
	c0.042,0.703-0.04,1.414-0.065,2.122C-99.865,44.15-100.036,44.151-100.208,44.151z"/>
<path fill-rule="evenodd" clip-rule="evenodd" fill="#FFFFFF" d="M79.459,45.213c-0.584-1.908-0.279-3.828-0.412-5.726
	c0.94-0.093,1.745-0.173,2.551-0.252C78.856,40.521,80.178,43.227,79.459,45.213z"/>
<path fill-rule="evenodd" clip-rule="evenodd" d="M-62.115,44.129c0-1.952,0-3.904,0-5.976
	C-61.346,39.204-61.234,42.13-62.115,44.129z"/>
<path fill-rule="evenodd" clip-rule="evenodd" fill="#FFFFFF" d="M117.196,39.468c0,1.888,0,3.775,0,5.954
	C116.533,43.999,116.452,41.605,117.196,39.468z"/>
<path fill-rule="evenodd" clip-rule="evenodd" d="M-88.479,36.959c0.404-0.46,0.808-0.922,1.212-1.383
	c0.116,0.103,0.229,0.205,0.343,0.308c-0.22,0.616-0.744,0.979-1.218,1.384C-88.255,37.166-88.367,37.062-88.479,36.959z"/>
<path fill-rule="evenodd" clip-rule="evenodd" fill="#FFFFFF" d="M92.4,37.358c-0.386,0.393-0.771,0.785-1.476,1.503
	c0.384-1.33,0.384-1.33,1.151-1.857C92.185,37.122,92.292,37.24,92.4,37.358z"/>
<path fill-rule="evenodd" clip-rule="evenodd" fill="#FFFFFF" d="M117.5,37.441c-0.241,0.157-0.415,0.317-0.613,0.37
	c-0.054,0.015-0.297-0.342-0.258-0.443c0.075-0.191,0.292-0.321,0.45-0.478C117.19,37.036,117.302,37.181,117.5,37.441z"/>
<path fill="#FCFCFC" d="M-124.019,27.847c-0.132,0.017-0.262,0.004-0.39-0.037c-0.128-0.04-0.248-0.114-0.356-0.219
	c-0.008,0-0.012-0.004-0.012-0.012c-0.109-0.105-0.194-0.225-0.256-0.359c-0.063-0.134-0.09-0.274-0.082-0.42
	c0-0.292,0.111-0.542,0.333-0.749c0.222-0.207,0.55-0.311,0.986-0.311h1.808l-1.376,1.741
	C-123.552,27.701-123.77,27.822-124.019,27.847h-0.093c-0.249,0-0.466-0.085-0.653-0.256c-0.008,0-0.012-0.004-0.012-0.012
	c-0.226-0.211-0.338-0.47-0.338-0.779c0.008-0.121,0.031-0.243,0.07-0.365c0.039-0.122,0.102-0.236,0.187-0.341l9.285-11.726h-8.328
	c-0.28,0-0.518-0.103-0.711-0.31c-0.195-0.208-0.292-0.457-0.292-0.749c0-0.146,0.027-0.282,0.082-0.408
	c0.054-0.126,0.128-0.235,0.222-0.329s0.202-0.168,0.326-0.225c0.124-0.057,0.256-0.085,0.397-0.085h10.357
	c0.203,0.016,0.369,0.069,0.501,0.158c0.031,0.017,0.06,0.035,0.087,0.055c0.027,0.02,0.057,0.042,0.087,0.067
	c0.102,0.097,0.181,0.207,0.24,0.329c0.058,0.122,0.091,0.25,0.099,0.384c0.007,0.134-0.008,0.268-0.047,0.401
	c-0.039,0.134-0.105,0.258-0.199,0.372l-9.238,11.714h8.62c0.28,0,0.515,0.104,0.706,0.311c0.19,0.207,0.286,0.457,0.286,0.749
	c0,0.285-0.095,0.53-0.286,0.737c-0.191,0.207-0.426,0.311-0.706,0.311H-124.019z"/>
<path fill="#FCFCFC" d="M-94.369,26.812c0,0.292-0.099,0.538-0.297,0.737c-0.198,0.199-0.434,0.298-0.706,0.298
	c-0.28,0-0.519-0.099-0.717-0.298c-0.199-0.199-0.298-0.444-0.298-0.737V13.296c0-0.292,0.099-0.538,0.298-0.737
	c0.198-0.199,0.437-0.298,0.717-0.298c0.272,0,0.508,0.1,0.706,0.298c0.198,0.199,0.297,0.445,0.297,0.737V26.812z"/>
<path fill="#FCFCFC" d="M-75.287,16.121v10.691c0,0.292-0.099,0.538-0.297,0.737c-0.198,0.199-0.434,0.298-0.706,0.298
	c-0.28,0-0.519-0.099-0.717-0.298c-0.199-0.199-0.298-0.444-0.298-0.737V13.296c0-0.292,0.099-0.538,0.298-0.737
	c0.198-0.199,0.437-0.298,0.717-0.298h0.035c0.265,0.016,0.494,0.118,0.688,0.305l5.354,6.77l5.354-6.77
	c0.164-0.154,0.351-0.252,0.56-0.292c0.016,0,0.035-0.002,0.059-0.006c0.023-0.004,0.042-0.006,0.058-0.006
	c0.07,0,0.124,0.004,0.163,0.012c0.249,0.033,0.459,0.145,0.63,0.335c0.17,0.19,0.256,0.42,0.256,0.688v13.516
	c0,0.292-0.099,0.538-0.297,0.737c-0.198,0.199-0.438,0.298-0.717,0.298c-0.272,0-0.507-0.099-0.706-0.298
	c-0.198-0.199-0.297-0.444-0.297-0.737V16.133l-4.292,5.418l-0.093,0.122c-0.117,0.122-0.226,0.203-0.326,0.244
	c-0.319,0.146-0.619,0.102-0.898-0.134l-0.105-0.097L-75.287,16.121z"/>
<path fill="#FCFCFC" d="M-37.227,24.547h-7.173l-1.085,2.667c-0.055,0.138-0.13,0.255-0.227,0.353
	c-0.098,0.098-0.208,0.17-0.333,0.219c-0.124,0.048-0.255,0.071-0.391,0.066c-0.136-0.004-0.271-0.038-0.402-0.103
	c-0.265-0.114-0.438-0.303-0.519-0.566c-0.082-0.264-0.064-0.534,0.052-0.811l5.564-13.467c0.085-0.211,0.208-0.371,0.368-0.481
	c0.159-0.109,0.344-0.164,0.554-0.164c0.202,0,0.383,0.055,0.543,0.164c0.159,0.11,0.281,0.267,0.367,0.469l5.575,13.479
	c0.117,0.268,0.136,0.537,0.059,0.804c-0.078,0.268-0.245,0.458-0.502,0.572c-0.264,0.122-0.526,0.132-0.787,0.03
	s-0.454-0.291-0.578-0.566L-37.227,24.547z M-43.595,22.453h5.541l-2.753-6.831L-43.595,22.453z"/>
<path fill="#FFFFFF" d="M55.731,30.71c-0.131,0.016-0.259,0.004-0.385-0.036c-0.127-0.04-0.244-0.111-0.352-0.216
	c-0.008,0-0.012-0.004-0.012-0.012c-0.107-0.104-0.191-0.223-0.252-0.354c-0.062-0.132-0.088-0.27-0.08-0.414
	c0-0.288,0.108-0.534,0.327-0.737c0.218-0.204,0.542-0.307,0.972-0.307h1.781l-1.356,1.716C56.19,30.567,55.977,30.686,55.731,30.71
	H55.64c-0.246,0-0.46-0.084-0.645-0.252c-0.008,0-0.012-0.004-0.012-0.012c-0.222-0.208-0.332-0.464-0.332-0.769
	c0.007-0.12,0.029-0.24,0.068-0.359c0.038-0.12,0.1-0.232,0.184-0.336l9.15-11.557h-8.207c-0.276,0-0.51-0.102-0.701-0.306
	c-0.191-0.204-0.288-0.45-0.288-0.738c0-0.144,0.026-0.278,0.081-0.402c0.053-0.124,0.126-0.232,0.219-0.324
	c0.092-0.092,0.199-0.166,0.321-0.222s0.253-0.084,0.391-0.084h10.208c0.199,0.016,0.363,0.068,0.494,0.156
	c0.03,0.016,0.059,0.034,0.086,0.054s0.056,0.042,0.086,0.066c0.1,0.096,0.178,0.204,0.236,0.324c0.057,0.12,0.09,0.246,0.098,0.378
	c0.008,0.132-0.008,0.264-0.047,0.396c-0.038,0.132-0.104,0.254-0.195,0.366l-9.104,11.544h8.494c0.276,0,0.508,0.103,0.695,0.307
	c0.188,0.203,0.282,0.449,0.282,0.737c0,0.28-0.094,0.522-0.282,0.727c-0.188,0.204-0.419,0.306-0.695,0.306H55.731z"/>
<path fill="#FFFFFF" d="M84.951,29.691c0,0.287-0.098,0.529-0.294,0.726c-0.195,0.196-0.427,0.294-0.695,0.294
	c-0.275,0-0.512-0.098-0.707-0.294s-0.293-0.438-0.293-0.726v-13.32c0-0.288,0.098-0.53,0.293-0.726s0.432-0.294,0.707-0.294
	c0.269,0,0.5,0.098,0.695,0.294c0.196,0.196,0.294,0.438,0.294,0.726V29.691z"/>
<path fill="#FFFFFF" d="M103.757,19.155v10.536c0,0.287-0.098,0.529-0.293,0.726s-0.428,0.294-0.695,0.294
	c-0.276,0-0.512-0.098-0.707-0.294s-0.293-0.438-0.293-0.726v-13.32c0-0.288,0.098-0.53,0.293-0.726s0.431-0.294,0.707-0.294h0.034
	c0.261,0.016,0.486,0.116,0.679,0.3l5.275,6.672l5.276-6.672c0.161-0.152,0.345-0.248,0.552-0.288c0.016,0,0.035-0.002,0.058-0.006
	s0.042-0.006,0.058-0.006c0.068,0,0.122,0.004,0.16,0.012c0.246,0.032,0.453,0.142,0.621,0.33s0.253,0.414,0.253,0.678v13.32
	c0,0.287-0.098,0.529-0.293,0.726s-0.431,0.294-0.707,0.294c-0.269,0-0.5-0.098-0.695-0.294c-0.196-0.196-0.294-0.438-0.294-0.726
	V19.167l-4.229,5.34l-0.092,0.12c-0.115,0.12-0.223,0.2-0.321,0.24c-0.314,0.144-0.609,0.1-0.886-0.132l-0.104-0.097L103.757,19.155
	z"/>
<path fill="#FFFFFF" d="M141.265,27.458h-7.07l-1.068,2.628c-0.054,0.136-0.129,0.252-0.225,0.348
	c-0.096,0.097-0.205,0.168-0.327,0.217c-0.122,0.048-0.251,0.069-0.386,0.065c-0.133-0.004-0.266-0.038-0.396-0.102
	c-0.26-0.112-0.431-0.298-0.511-0.559c-0.081-0.26-0.063-0.525,0.052-0.798l5.482-13.272c0.084-0.208,0.205-0.366,0.362-0.474
	c0.157-0.108,0.339-0.162,0.546-0.162c0.199,0,0.378,0.054,0.535,0.162c0.156,0.108,0.277,0.262,0.361,0.462l5.495,13.284
	c0.114,0.264,0.134,0.528,0.058,0.792c-0.077,0.264-0.242,0.452-0.494,0.564c-0.261,0.12-0.52,0.13-0.776,0.029
	c-0.257-0.1-0.446-0.285-0.569-0.558L141.265,27.458z M134.988,25.394h5.46l-2.713-6.731L134.988,25.394z"/>
</svg>
