<?xml version="1.0" encoding="utf-8"?>
<!-- Generator: Adobe Illustrator 16.0.0, SVG Export Plug-In . SVG Version: 6.00 Build 0)  -->
<!DOCTYPE svg PUBLIC "-//W3C//DTD SVG 1.1//EN" "http://www.w3.org/Graphics/SVG/1.1/DTD/svg11.dtd">
<svg version="1.1" id="Layer_1" xmlns="http://www.w3.org/2000/svg" xmlns:xlink="http://www.w3.org/1999/xlink" x="0px" y="0px"
	 width="612px" height="792px" viewBox="0 0 612 792" enable-background="new 0 0 612 792" xml:space="preserve">
<path fill-rule="evenodd" clip-rule="evenodd" d="M221.027,382.626c-8.473,0-16.946,0.056-25.418-0.026
	c-3.562-0.034-7.092-0.605-10.521-1.659c-1.42-0.437-2.829-0.987-4.154-1.676c-4.325-2.248-6.683-6-6.815-11.032
	c-0.094-3.59,0.119-7.209,0.457-10.788c0.978-10.36,2.535-20.626,4.971-30.729c2.294-9.518,5.256-18.778,9.764-27.423
	c2.531-4.854,5.519-9.363,9.285-13.264c2.503-2.593,5.255-4.848,8.413-6.488c0.97-0.504,2.039-0.919,3.102-1.075
	c2.151-0.315,3.568,0.966,3.47,3.253c-0.065,1.534-0.391,3.12-0.92,4.552c-1.028,2.783-2.179,5.528-3.462,8.192
	c-3.199,6.643-4.593,13.694-4.401,21.086c0.054,2.085,0.375,4.212,0.899,6.228c1.662,6.398,6.13,10.291,12.575,10.95
	c2.043,0.209,4.164,0.229,6.185-0.098c7.187-1.161,11.479-5.834,12.522-13.486c1.104-8.107-0.277-15.837-3.431-23.257
	c-1.213-2.853-2.576-5.638-3.727-8.518c-0.596-1.49-1.033-3.093-1.27-4.689c-0.479-3.223,1.463-4.976,4.445-4.049
	c1.164,0.362,2.282,0.965,3.34,1.604c4.499,2.717,8.164,6.426,11.308,10.729c4.938,6.761,8.338,14.369,11.059,22.344
	c3.55,10.404,5.838,21.139,7.356,32.054c0.74,5.312,1.293,10.654,1.807,15.996c0.22,2.293,0.259,4.627,0.14,6.928
	c-0.26,5.028-2.558,8.748-6.871,11.023c-3.165,1.669-6.568,2.521-10.056,2.851c-3.73,0.353-7.482,0.562-11.227,0.62
	c-6.273,0.098-12.549,0.026-18.824,0.026C221.027,382.745,221.027,382.686,221.027,382.626z"/>
<path fill-rule="evenodd" clip-rule="evenodd" d="M352.885,381.307c-7.181,0-14.361,0.059-21.541-0.021
	c-4.529-0.051-9.066-0.338-13.458-1.607c-2.039-0.59-4.069-1.394-5.931-2.439c-3.557-1.998-5.575-5.289-5.88-9.498
	c-0.21-2.898-0.166-5.848,0.077-8.745c1.057-12.617,2.917-25.098,6.13-37.325c2.314-8.808,5.268-17.354,9.635-25.298
	c3.001-5.458,6.542-10.478,11.281-14.406c1.918-1.589,4.047-2.922,6.178-4.188c0.917-0.545,2.073-0.794,3.142-0.875
	c1.545-0.117,2.657,0.854,2.785,2.481c0.099,1.255,0.063,2.643-0.351,3.8c-1.178,3.301-2.436,6.588-3.92,9.748
	c-3.315,7.06-4.759,14.491-4.304,22.317c0.11,1.88,0.461,3.789,0.99,5.591c1.582,5.386,5.053,8.715,10.299,9.986
	c3.272,0.793,6.53,0.793,9.8-0.009c5.325-1.306,8.753-4.739,10.354-10.204c1.344-4.587,1.265-9.265,0.62-13.946
	c-0.7-5.081-2.113-9.916-4.399-14.494c-1.316-2.638-2.375-5.435-3.354-8.235c-0.456-1.304-0.615-2.788-0.607-4.189
	c0.01-1.869,1.3-3.083,3.069-2.833c1.311,0.185,2.646,0.671,3.823,1.318c4.423,2.428,8.052,5.894,11.195,9.933
	c4.847,6.225,8.257,13.3,11.013,20.753c3.646,9.862,6.11,20.072,7.677,30.496c1.109,7.38,1.873,14.822,2.63,22.255
	c0.225,2.203,0.063,4.489-0.201,6.7c-0.506,4.222-2.773,7.235-6.303,9.229c-2.89,1.632-6.024,2.525-9.245,2.882
	c-3.98,0.439-7.989,0.735-11.99,0.817c-6.402,0.132-12.809,0.035-19.213,0.035C352.885,381.326,352.885,381.316,352.885,381.307z
	 M342.7,280.17c-0.151-0.121-0.303-0.241-0.453-0.361c-0.933,0.431-1.965,0.715-2.778,1.322c-2.209,1.646-4.468,3.266-6.447,5.19
	c-4.319,4.199-7.503,9.328-10.228,14.773c-4.364,8.721-7.21,18.017-9.351,27.574c-2.049,9.146-3.331,18.424-4.19,27.766
	c-0.299,3.242-0.483,6.514-0.455,9.769c0.037,4.18,1.953,7.274,5.616,9.001c1.465,0.69,3.009,1.249,4.567,1.656
	c4.356,1.141,8.813,1.369,13.283,1.371c13.452,0.005,26.904,0.035,40.356-0.022c3.291-0.015,6.591-0.227,9.869-0.54
	c3.097-0.296,6.127-1.03,8.958-2.467c3.367-1.709,5.288-4.484,5.51-8.455c0.072-1.286,0.117-2.584,0.045-3.868
	c-0.516-9.172-1.615-18.272-3.257-27.294c-1.913-10.508-4.596-20.78-8.883-30.527c-2.812-6.393-6.236-12.372-10.873-17.513
	c-2.418-2.68-5.077-5.048-8.224-6.737c-0.756-0.405-1.602-0.624-2.844-1.095c0.353,1.474,0.473,2.482,0.832,3.386
	c1.121,2.819,2.221,5.658,3.535,8.378c1.742,3.606,2.996,7.366,3.771,11.312c1.149,5.85,1.575,11.726,0.168,17.59
	c-1.593,6.639-5.365,11.231-11.741,13.139c-4.117,1.232-8.288,1.271-12.462,0.188c-6.021-1.562-9.97-5.464-11.975-11.606
	c-0.912-2.795-1.337-5.688-1.344-8.617c-0.019-7.583,1.376-14.842,4.642-21.673c1.333-2.788,2.488-5.675,3.634-8.557
	C342.366,282.289,342.469,281.201,342.7,280.17z"/>
<path fill-rule="evenodd" clip-rule="evenodd" d="M352.89,284.112c-1.951-0.007-3.54-1.716-3.533-3.8
	c0.008-2.084,1.611-3.78,3.563-3.766c1.941,0.014,3.563,1.746,3.559,3.8C356.475,282.393,354.829,284.119,352.89,284.112z"/>
<path fill-rule="evenodd" clip-rule="evenodd" d="M224.598,281.756c0.038,2.131-1.449,3.759-3.47,3.8
	c-2.038,0.041-3.583-1.51-3.62-3.635c-0.038-2.113,1.472-3.775,3.465-3.817C222.972,278.062,224.561,279.662,224.598,281.756z"/>
<path fill-rule="evenodd" clip-rule="evenodd" d="M223.799,426.837c0-1.885,0-3.771,0-5.686c1.363,0.055,2.805-1.406,4.023,0.318
	c0.379-0.217,0.648-0.406,0.942-0.533c1.728-0.746,2.761-0.087,2.859,1.89c0.066,1.318,0.013,2.644,0.013,3.966
	c-0.137,0.016-0.274,0.03-0.412,0.046c-0.09-0.337-0.242-0.671-0.257-1.012c-0.04-0.949,0-1.901-0.034-2.851
	c-0.028-0.775-0.146-1.548-1.112-1.594c-0.918-0.043-1.472,0.525-1.66,1.395c-0.14,0.651-0.09,1.348-0.121,2.024
	c-0.032,0.693-0.061,1.388-0.09,2.081c-0.14,0.007-0.28,0.014-0.42,0.02c-0.077-0.408-0.205-0.814-0.221-1.226
	c-0.036-0.949-0.014-1.9-0.023-2.851c-0.007-0.751-0.226-1.365-1.044-1.44c-0.81-0.073-1.416,0.342-1.625,1.141
	c-0.168,0.641-0.146,1.34-0.183,2.014c-0.042,0.766-0.055,1.531-0.081,2.298C224.169,426.837,223.984,426.837,223.799,426.837z"/>
<path fill-rule="evenodd" clip-rule="evenodd" d="M359.254,425.301c-0.027-1.163-0.048-2.326-0.082-3.488
	c-0.041-1.385-0.374-1.94-1.166-1.981c-0.85-0.044-1.578,0.645-1.718,1.839c-0.14,1.196-0.121,2.414-0.178,3.752
	c-0.741-1.033-0.847-2.496-0.506-5.817c0.598-0.111,1.189-0.28,1.789-0.314c0.56-0.033,1.234-0.106,1.665,0.17
	c0.592,0.378,0.93,0.283,1.522,0.009c1.807-0.836,2.853-0.079,2.917,2.01c0.039,1.273,0.007,2.55-0.358,3.9
	c-0.123-0.302-0.337-0.598-0.352-0.905c-0.048-1.014-0.03-2.032-0.023-3.049c0.005-0.824-0.179-1.546-1.103-1.575
	c-0.875-0.027-1.491,0.487-1.629,1.408c-0.119,0.798-0.084,1.62-0.14,2.43c-0.038,0.549-0.115,1.095-0.176,1.643
	C359.563,425.32,359.408,425.311,359.254,425.301z"/>
<path fill-rule="evenodd" clip-rule="evenodd" d="M211.749,422.527c0.188-1.335,0.789-1.902,2.035-1.925
	c1.154-0.02,2.028,0.545,2.174,1.552c0.116,0.795,0.062,1.617,0.081,2.428c0.009,0.405-0.042,0.823,0.034,1.213
	c0.071,0.364,0.275,0.699,0.517,1.278c-1.081-0.357-2.005-0.291-2.969-0.009c-0.532,0.155-1.309-0.058-1.794-0.394
	c-0.979-0.679-0.78-2.286,0.341-2.797c0.689-0.314,1.513-0.292,2.228-0.563c0.337-0.128,0.792-0.608,0.772-0.896
	c-0.024-0.349-0.478-0.917-0.777-0.939c-0.587-0.043-1.237,0.132-1.776,0.402c-0.262,0.132-0.332,0.686-0.488,1.048
	C212.001,422.792,211.875,422.659,211.749,422.527z M215.125,423.938c-0.829,0.128-1.565,0.121-2.201,0.385
	c-0.372,0.154-0.827,0.762-0.797,1.124c0.029,0.354,0.588,0.865,0.981,0.946C214.448,426.668,215.155,425.819,215.125,423.938z"/>
<path fill-rule="evenodd" clip-rule="evenodd" d="M260.141,422.773c0.408-1.682,1.1-2.233,2.408-2.148
	c1.271,0.083,1.879,0.687,1.967,2.011c0.041,0.608-0.033,1.226,0.022,1.831c0.074,0.823,0.222,1.639,0.356,2.583
	c-0.898-0.413-1.823-0.277-2.781,0.036c-0.444,0.145-1.11,0.067-1.478-0.205c-0.415-0.307-0.753-0.914-0.861-1.449
	c-0.145-0.717,0.241-1.36,0.93-1.589c0.73-0.243,1.52-0.291,2.25-0.535c0.305-0.102,0.759-0.523,0.731-0.74
	c-0.051-0.393-0.4-1.04-0.647-1.051c-0.652-0.028-1.333,0.172-1.968,0.391C260.775,422.009,260.562,422.367,260.141,422.773z
	 M263.625,423.963c-0.761,0.101-1.393,0.156-2.014,0.274c-0.617,0.117-1.096,0.458-1.033,1.201c0.075,0.89,0.728,1.011,1.399,0.987
	C263.194,426.382,263.657,425.729,263.625,423.963z"/>
<path fill-rule="evenodd" clip-rule="evenodd" d="M343.415,421.494c0.431-1.949,1.02-2.412,2.458-2.341
	c1.294,0.064,1.902,0.621,2.021,1.945c0.061,0.67,0.016,1.351,0.022,2.026c0.003,0.405-0.038,0.821,0.035,1.213
	c0.066,0.349,0.264,0.671,0.551,1.359c-1.202-0.783-2.115-0.305-3.065-0.122c-0.477,0.092-1.107,0.06-1.479-0.209
	c-0.423-0.304-0.897-0.952-0.867-1.416c0.036-0.561,0.464-1.297,0.929-1.573c0.64-0.381,1.495-0.336,2.214-0.604
	c0.345-0.129,0.842-0.587,0.816-0.845c-0.037-0.365-0.454-0.902-0.782-0.97c-0.515-0.106-1.13,0.018-1.628,0.234
	C344.277,420.352,344.033,420.814,343.415,421.494z M347.122,422.466c-0.954,0.122-1.744,0.102-2.438,0.363
	c-0.363,0.138-0.817,0.819-0.758,1.165c0.064,0.377,0.641,0.838,1.059,0.929C346.146,425.174,346.888,424.347,347.122,422.466z"/>
<path fill-rule="evenodd" clip-rule="evenodd" d="M392.16,421.133c0.192-1.583,0.781-2.048,2.223-1.979
	c1.232,0.061,1.847,0.555,2.004,1.742c0.088,0.665,0.013,1.352,0.055,2.025c0.053,0.839,0.15,1.674,0.211,2.328
	c-0.772,0.089-1.536,0.187-2.302,0.262c-0.443,0.044-0.898,0.117-1.334,0.06c-0.874-0.113-1.402-0.68-1.466-1.605
	c-0.058-0.842,0.369-1.451,1.113-1.701c0.668-0.226,1.402-0.244,2.062-0.49c0.349-0.131,0.853-0.574,0.832-0.836
	c-0.029-0.362-0.424-0.847-0.772-0.999C393.612,419.425,392.903,420.293,392.16,421.133z M395.56,422.509
	c-0.769,0.078-1.531,0.078-2.255,0.254c-0.578,0.141-1.181,0.604-0.868,1.289c0.195,0.428,0.844,0.838,1.315,0.874
	C394.939,425.018,395.456,424.293,395.56,422.509z"/>
<path fill-rule="evenodd" clip-rule="evenodd" d="M194.263,424.116c-1.437,0-2.816,0-4.235,0c0.484,2.752,1.685,2.994,4.143,0.888
	c-0.083,1.272-0.699,1.812-1.598,2.067c-1.183,0.336-2.315-0.089-2.93-1.039c-0.744-1.147-0.636-3.372,0.215-4.423
	c0.76-0.94,1.932-1.251,2.982-0.748C194.073,421.452,194.433,422.506,194.263,424.116z M193.437,423.358
	c-0.22-1.532-0.661-2.037-1.67-1.991c-0.973,0.044-1.425,0.613-1.557,1.991C191.284,423.358,192.354,423.358,193.437,423.358z"/>
<path fill-rule="evenodd" clip-rule="evenodd" d="M326.17,422.591c-1.458,0-2.797,0-4.203,0c-0.211,1.136,0.17,1.806,1.019,2.213
	c1.277,0.612,1.979-0.438,2.822-1.34c-0.104,1.646-0.863,2.276-2.35,2.173c-1.564-0.107-2.548-1.371-2.518-3.235
	c0.031-1.911,1.183-3.262,2.769-3.246C325.298,419.171,326.048,420.136,326.17,422.591z M321.876,421.761c1.272,0,2.367,0,3.548,0
	c-0.122-1.253-0.71-1.9-1.708-1.917C322.729,419.826,322.108,420.448,321.876,421.761z"/>
<path fill-rule="evenodd" clip-rule="evenodd" d="M181.857,422.882c-1.815-1.658-2.653-1.859-3.509-0.999
	c-0.913,0.919-0.979,2.945-0.129,3.941c0.836,0.979,1.717,0.79,3.53-0.762c-0.208,1.559-0.875,2.151-2.347,2.085
	c-1.541-0.07-2.482-1.171-2.555-2.988c-0.075-1.842,0.855-3.241,2.326-3.5C180.493,420.426,181.373,421.063,181.857,422.882z"/>
<path fill-rule="evenodd" clip-rule="evenodd" d="M252.471,422.907c-1.91-1.742-2.908-1.899-3.734-0.83
	c-0.807,1.045-0.683,3.129,0.234,3.94c0.916,0.81,1.898,0.501,3.427-1.251c-0.061,0.58-0.004,0.954-0.144,1.211
	c-0.549,1.016-1.462,1.246-2.5,1.155c-1.097-0.095-1.818-0.733-2.135-1.788c-0.362-1.208-0.317-2.43,0.374-3.53
	c0.584-0.931,1.678-1.382,2.72-1.125C251.63,420.915,252.33,421.39,252.471,422.907z"/>
<path fill-rule="evenodd" clip-rule="evenodd" d="M384.391,423.222c-0.589,2.002-1.201,2.503-2.611,2.417
	c-1.301-0.08-2.136-0.851-2.394-2.207c-0.529-2.783,1.068-4.766,3.366-4.177c1.025,0.263,1.252,0.586,1.354,1.929
	c-1.812-1.573-2.659-1.726-3.509-0.632c-0.778,1.001-0.672,3.142,0.194,3.94C381.715,425.343,382.521,425.098,384.391,423.222z"/>
<path fill-rule="evenodd" clip-rule="evenodd" d="M313.669,421.252c-2.035-1.635-2.801-1.767-3.642-0.693
	c-0.738,0.942-0.695,2.953,0.08,3.806c0.887,0.975,1.661,0.779,3.516-0.888c-0.189,1.888-2,2.8-3.621,1.824
	c-1.186-0.713-1.671-2.794-1.028-4.403c0.572-1.432,1.899-2.074,3.356-1.6C313.191,419.579,313.771,420.097,313.669,421.252z"/>
<path fill-rule="evenodd" clip-rule="evenodd" d="M201.871,426.879c-0.347-1.854-0.065-3.756-0.165-5.642
	c0.873-0.188,1.68-0.361,2.473-0.531c0.054,0.262,0.116,0.492,0.101,0.498c-1.64,0.617-1.932,1.972-1.836,3.583
	c0.041,0.692-0.039,1.394-0.064,2.091C202.21,426.878,202.041,426.879,201.871,426.879z"/>
<path fill-rule="evenodd" clip-rule="evenodd" d="M333.979,425.314c-0.584-1.908-0.279-3.828-0.412-5.726
	c0.94-0.093,1.745-0.173,2.551-0.252C333.377,420.622,334.698,423.328,333.979,425.314z"/>
<path fill-rule="evenodd" clip-rule="evenodd" d="M239.412,426.857c0-1.924,0-3.848,0-5.89
	C240.17,422.003,240.28,424.887,239.412,426.857z"/>
<path fill-rule="evenodd" clip-rule="evenodd" d="M371.717,419.569c0,1.888,0,3.775,0,5.954
	C371.054,424.1,370.973,421.706,371.717,419.569z"/>
<path fill-rule="evenodd" clip-rule="evenodd" d="M213.429,419.791c0.399-0.454,0.797-0.908,1.196-1.362
	c0.112,0.101,0.225,0.202,0.337,0.303c-0.218,0.607-0.733,0.966-1.201,1.364C213.65,419.994,213.54,419.893,213.429,419.791z"/>
<path fill-rule="evenodd" clip-rule="evenodd" d="M346.921,417.459c-0.386,0.393-0.771,0.785-1.476,1.503
	c0.384-1.33,0.384-1.33,1.151-1.857C346.705,417.223,346.813,417.341,346.921,417.459z"/>
<path fill-rule="evenodd" clip-rule="evenodd" d="M372.021,417.542c-0.241,0.157-0.415,0.317-0.613,0.37
	c-0.054,0.015-0.297-0.342-0.258-0.443c0.075-0.191,0.292-0.321,0.45-0.478C371.711,417.137,371.822,417.282,372.021,417.542z"/>
<text transform="matrix(0.9579 0 0 1 176.8423 410.8115)" font-family="'AristotelicaDisplayTrial-Regula'" font-size="24" letter-spacing="13.571">ZIMA</text>
<text transform="matrix(0.9579 0 0 1 308.6885 410.8115)" font-family="'AristotelicaDisplayTrial-Regula'" font-size="24" letter-spacing="13.571">ZIMA</text>
</svg>
